<svg width="196" height="36" viewBox="0 0 196 36" fill="none" xmlns="http://www.w3.org/2000/svg">
<rect x="36.436" y="0.462036" width="35.5011" height="35.5011" rx="5" fill="#EEF2F5"/>
<rect x="123.245" y="0.462036" width="35.5011" height="35.5011" rx="5" fill="#EEF2F5"/>
<path d="M56.8406 22.6696V23.7126H51.4086V22.6696H53.5366V16.0826C53.5366 15.8726 53.5436 15.6556 53.5576 15.4316L51.8496 16.8806C51.7843 16.9319 51.719 16.9646 51.6536 16.9786C51.5883 16.9926 51.5253 16.9949 51.4646 16.9856C51.4086 16.9763 51.3573 16.9576 51.3106 16.9296C51.2686 16.8969 51.2336 16.8643 51.2056 16.8316L50.7786 16.2366L53.7886 13.6396H54.9016V22.6696H56.8406Z" fill="#414141"/>
<path d="M141.578 20.0446V16.1246C141.578 15.9893 141.58 15.8469 141.585 15.6976C141.594 15.5436 141.611 15.3849 141.634 15.2216L138.113 20.0446H141.578ZM144.231 20.0446V20.8356C144.231 20.9149 144.205 20.9826 144.154 21.0386C144.103 21.0946 144.03 21.1226 143.937 21.1226H142.775V23.7126H141.578V21.1226H137.168C137.065 21.1226 136.979 21.0946 136.909 21.0386C136.839 20.9779 136.792 20.9033 136.769 20.8146L136.629 20.1146L141.487 13.6536H142.775V20.0446H144.231Z" fill="#414141"/>
<path d="M95.0813 16.4886C95.604 16.4886 96.0753 16.5749 96.4953 16.7476C96.92 16.9156 97.2793 17.1606 97.5733 17.4826C97.872 17.7999 98.1006 18.1849 98.2593 18.6376C98.418 19.0856 98.4973 19.5896 98.4973 20.1496C98.4973 20.7096 98.418 21.2159 98.2593 21.6686C98.1006 22.1213 97.872 22.5063 97.5733 22.8236C97.2793 23.1409 96.92 23.3859 96.4953 23.5586C96.0753 23.7266 95.604 23.8106 95.0813 23.8106C94.554 23.8106 94.078 23.7266 93.6533 23.5586C93.2333 23.3859 92.874 23.1409 92.5753 22.8236C92.2766 22.5063 92.0456 22.1213 91.8823 21.6686C91.7236 21.2159 91.6443 20.7096 91.6443 20.1496C91.6443 19.5896 91.7236 19.0856 91.8823 18.6376C92.0456 18.1849 92.2766 17.7999 92.5753 17.4826C92.874 17.1606 93.2333 16.9156 93.6533 16.7476C94.078 16.5749 94.554 16.4886 95.0813 16.4886ZM95.0813 22.7466C95.7533 22.7466 96.255 22.5203 96.5863 22.0676C96.9176 21.6149 97.0833 20.9779 97.0833 20.1566C97.0833 19.3353 96.9176 18.6983 96.5863 18.2456C96.255 17.7883 95.7533 17.5596 95.0813 17.5596C94.4 17.5596 93.8913 17.7883 93.5553 18.2456C93.224 18.6983 93.0583 19.3353 93.0583 20.1566C93.0583 20.9779 93.224 21.6149 93.5553 22.0676C93.8913 22.5203 94.4 22.7466 95.0813 22.7466ZM100.326 23.7126V17.7206L99.5839 17.6296C99.4766 17.6063 99.3879 17.5689 99.3179 17.5176C99.2526 17.4616 99.2199 17.3823 99.2199 17.2796V16.7126H100.326V16.0686C100.326 15.6626 100.384 15.3009 100.501 14.9836C100.618 14.6663 100.783 14.3979 100.998 14.1786C101.217 13.9546 101.479 13.7866 101.782 13.6746C102.09 13.5579 102.435 13.4996 102.818 13.4996C103.14 13.4996 103.436 13.5463 103.707 13.6396L103.679 14.3256C103.674 14.3863 103.656 14.4329 103.623 14.4656C103.59 14.4936 103.546 14.5146 103.49 14.5286C103.439 14.5426 103.373 14.5519 103.294 14.5566C103.219 14.5566 103.138 14.5566 103.049 14.5566C102.839 14.5566 102.648 14.5823 102.475 14.6336C102.302 14.6849 102.155 14.7713 102.034 14.8926C101.913 15.0139 101.819 15.1749 101.754 15.3756C101.689 15.5716 101.656 15.8166 101.656 16.1106V16.7126H103.651V17.7066H101.698V23.7126H100.326Z" fill="#414141"/>
<path d="M185.113 9.27118C184.293 9.27118 183.504 9.37665 182.746 9.58759C181.988 9.79852 181.273 10.0993 180.601 10.4899C179.929 10.8806 179.328 11.3454 178.797 11.8845C178.265 12.4235 177.8 13.029 177.402 13.7009C177.004 14.3727 176.703 15.0837 176.5 15.8337C176.297 16.5837 176.187 17.3766 176.172 18.2126C176.172 19.0329 176.277 19.822 176.488 20.5798C176.699 21.3376 177 22.0524 177.39 22.7243C177.781 23.3962 178.246 23.9977 178.785 24.529C179.324 25.0602 179.929 25.5251 180.601 25.9235C181.273 26.322 181.984 26.6227 182.734 26.8259C183.484 27.029 184.277 27.1384 185.113 27.154C185.933 27.154 186.722 27.0485 187.48 26.8376C188.238 26.6266 188.953 26.3259 189.625 25.9352C190.297 25.5446 190.898 25.0798 191.429 24.5407C191.961 24.0016 192.425 23.3962 192.824 22.7243C193.222 22.0524 193.523 21.3415 193.726 20.5915C193.929 19.8415 194.039 19.0485 194.054 18.2126C194.054 17.3923 193.949 16.6032 193.738 15.8454C193.527 15.0876 193.226 14.3766 192.836 13.7126C192.445 13.0485 191.976 12.4431 191.429 11.8962C190.882 11.3493 190.281 10.8845 189.625 10.5016C188.968 10.1188 188.257 9.81805 187.492 9.5993C186.726 9.38055 185.933 9.27118 185.113 9.27118ZM185.113 7.77118C186.074 7.77118 186.996 7.89618 187.879 8.14618C188.761 8.39618 189.593 8.74774 190.375 9.20087C191.156 9.65399 191.859 10.197 192.484 10.8298C193.109 11.4626 193.656 12.1696 194.125 12.9509C194.593 13.7321 194.945 14.5602 195.179 15.4352C195.414 16.3102 195.539 17.236 195.554 18.2126C195.554 19.1735 195.429 20.0954 195.179 20.9782C194.929 21.861 194.578 22.6931 194.125 23.4743C193.672 24.2556 193.129 24.9587 192.496 25.5837C191.863 26.2087 191.156 26.7556 190.375 27.2243C189.593 27.6931 188.765 28.0446 187.89 28.279C187.015 28.5134 186.089 28.6384 185.113 28.654C184.152 28.654 183.23 28.529 182.347 28.279C181.464 28.029 180.632 27.6774 179.851 27.2243C179.07 26.7712 178.367 26.2282 177.742 25.5954C177.117 24.9626 176.57 24.2556 176.101 23.4743C175.632 22.6931 175.281 21.8649 175.047 20.9899C174.812 20.1149 174.687 19.1891 174.672 18.2126C174.672 17.2516 174.797 16.3298 175.047 15.447C175.297 14.5641 175.648 13.7321 176.101 12.9509C176.554 12.1696 177.097 11.4665 177.73 10.8415C178.363 10.2165 179.07 9.66962 179.851 9.20087C180.632 8.73212 181.461 8.38055 182.336 8.14618C183.211 7.9118 184.136 7.7868 185.113 7.77118ZM184.082 23.6735L183.027 22.6188L187.363 18.2712L183.027 13.9235L184.082 12.8688L189.484 18.2712L184.082 23.6735Z" fill="#BDC1CA"/>
<path d="M10.8407 27.154C11.661 27.154 12.4501 27.0485 13.2079 26.8376C13.9657 26.6266 14.6805 26.3259 15.3524 25.9352C16.0243 25.5446 16.6259 25.0798 17.1571 24.5407C17.6884 24.0016 18.1532 23.3962 18.5516 22.7243C18.9501 22.0524 19.2509 21.3415 19.454 20.5915C19.6571 19.8415 19.7665 19.0485 19.7821 18.2126C19.7821 17.3923 19.6766 16.6032 19.4657 15.8454C19.2548 15.0876 18.954 14.3727 18.5634 13.7009C18.1727 13.029 17.7079 12.4274 17.1688 11.8962C16.6298 11.3649 16.0243 10.9001 15.3524 10.5016C14.6805 10.1032 13.9696 9.80243 13.2196 9.5993C12.4696 9.39618 11.6766 9.2868 10.8407 9.27118C10.0204 9.27118 9.23132 9.37665 8.47351 9.58758C7.7157 9.79852 7.00086 10.0993 6.32898 10.4899C5.65711 10.8806 5.05554 11.3454 4.52429 11.8845C3.99304 12.4235 3.5282 13.029 3.12976 13.7009C2.73132 14.3727 2.43054 15.0837 2.22742 15.8337C2.02429 16.5837 1.91492 17.3766 1.89929 18.2126C1.89929 19.0329 2.00476 19.822 2.2157 20.5798C2.42664 21.3376 2.72742 22.0485 3.11804 22.7126C3.50867 23.3766 3.97742 23.9821 4.52429 24.529C5.07117 25.0759 5.67273 25.5407 6.32898 25.9235C6.98523 26.3063 7.69617 26.6071 8.46179 26.8259C9.22742 27.0446 10.0204 27.154 10.8407 27.154ZM10.8407 28.654C9.87976 28.654 8.95789 28.529 8.07507 28.279C7.19226 28.029 6.36023 27.6774 5.57898 27.2243C4.79773 26.7712 4.0946 26.2282 3.4696 25.5954C2.8446 24.9626 2.29773 24.2556 1.82898 23.4743C1.36023 22.6931 1.00867 21.8649 0.774293 20.9899C0.539918 20.1149 0.414918 19.1891 0.399293 18.2126C0.399293 17.2516 0.524293 16.3298 0.774293 15.447C1.02429 14.5641 1.37586 13.7321 1.82898 12.9509C2.28211 12.1696 2.82507 11.4665 3.45789 10.8415C4.0907 10.2165 4.79773 9.66962 5.57898 9.20087C6.36023 8.73212 7.18836 8.38055 8.06336 8.14618C8.93836 7.9118 9.86414 7.7868 10.8407 7.77118C11.8016 7.77118 12.7235 7.89618 13.6063 8.14618C14.4891 8.39618 15.3212 8.74774 16.1024 9.20087C16.8837 9.65399 17.5868 10.197 18.2118 10.8298C18.8368 11.4626 19.3837 12.1696 19.8524 12.9509C20.3212 13.7321 20.6727 14.5602 20.9071 15.4352C21.1415 16.3102 21.2665 17.236 21.2821 18.2126C21.2821 19.1735 21.1571 20.0954 20.9071 20.9782C20.6571 21.861 20.3055 22.6931 19.8524 23.4743C19.3993 24.2556 18.8563 24.9587 18.2235 25.5837C17.5907 26.2087 16.8837 26.7556 16.1024 27.2243C15.3212 27.6931 14.493 28.0446 13.618 28.279C12.743 28.5134 11.8173 28.6384 10.8407 28.654ZM11.8719 12.7516L12.9266 13.8063L8.5907 18.154L12.9266 22.5016L11.8719 23.5563L6.46961 18.154L11.8719 12.7516Z" fill="#BDC1CA"/>
</svg>
